<svg width="24" height="26" viewBox="0 0 24 26" fill="none" xmlns="http://www.w3.org/2000/svg">
<path fill-rule="evenodd" clip-rule="evenodd" d="M2.65953 2.80857L0 2.56419L0.22549 0.200012L4.49329 0.592183L5.59618 4.0918L24 5.78294L23.164 14.5485L7.19617 17.2039L2.65953 2.80857ZM6.37019 6.54782L8.88113 14.5154L20.9285 12.5119L21.3659 7.92579L6.37019 6.54782Z" fill="white"/>
<path fill-rule="evenodd" clip-rule="evenodd" d="M18.7707 22.8255C19.1047 22.8255 19.3755 22.5597 19.3755 22.2319C19.3755 21.904 19.1047 21.6382 18.7707 21.6382C18.4367 21.6382 18.1659 21.904 18.1659 22.2319C18.1659 22.5597 18.4367 22.8255 18.7707 22.8255ZM18.7707 25.2C20.4408 25.2 21.7947 23.8711 21.7947 22.2319C21.7947 20.5926 20.4408 19.2637 18.7707 19.2637C17.1006 19.2637 15.7468 20.5926 15.7468 22.2319C15.7468 23.8711 17.1006 25.2 18.7707 25.2Z" fill="white"/>
<path fill-rule="evenodd" clip-rule="evenodd" d="M9.09413 22.8255C9.42814 22.8255 9.69891 22.5597 9.69891 22.2319C9.69891 21.904 9.42814 21.6382 9.09413 21.6382C8.76011 21.6382 8.48934 21.904 8.48934 22.2319C8.48934 22.5597 8.76011 22.8255 9.09413 22.8255ZM9.09413 25.2C10.7642 25.2 12.1181 23.8711 12.1181 22.2319C12.1181 20.5926 10.7642 19.2637 9.09413 19.2637C7.42405 19.2637 6.07019 20.5926 6.07019 22.2319C6.07019 23.8711 7.42405 25.2 9.09413 25.2Z" fill="white"/>
</svg>
