<svg width="20" height="21" viewBox="0 0 20 21" fill="none" xmlns="http://www.w3.org/2000/svg">
<path fill-rule="evenodd" clip-rule="evenodd" d="M17.9987 9.84671C17.9987 14.0701 14.5754 17.4934 10.3529 17.4934C6.13045 17.4934 2.70714 14.0701 2.70714 9.84671C2.70714 5.62337 6.13045 2.20001 10.3529 2.20001C14.5754 2.20001 17.9987 5.62337 17.9987 9.84671ZM19.9987 9.84671C19.9987 15.1744 15.6801 19.4934 10.3529 19.4934C8.04941 19.4934 5.9345 18.6859 4.27578 17.3385L1.41428 20.2002L0 18.7861L2.86166 15.9241C1.5145 14.2653 0.707141 12.1503 0.707141 9.84671C0.707141 4.51899 5.0257 0.200012 10.3529 0.200012C15.6801 0.200012 19.9987 4.51899 19.9987 9.84671Z" fill="white"/>
</svg>
